<svg width="21" height="21" viewBox="0 0 21 21" fill="none" xmlns="http://www.w3.org/2000/svg">
<path fill-rule="evenodd" clip-rule="evenodd" d="M11.8431 4.7761L13.2681 6.17944L6.94992 12.5952C6.63288 12.9188 6.63288 13.4395 6.94992 13.7631C7.25077 14.0702 7.75334 14.0688 8.05097 13.7614L15.0024 6.69984C16.0172 5.66421 16.0172 4.00099 15.0024 2.96536C14.0341 1.97726 12.3209 1.99924 11.372 2.96724L3.78472 10.6694C2.07172 12.4168 2.07172 15.2228 3.78472 16.9702C5.44813 18.667 8.30562 18.6394 9.94305 16.9686L18.7921 7.98141L20.2172 9.38462L11.3698 18.3702C8.9559 20.8332 4.81026 20.8733 2.35651 18.3703C-0.118878 15.8452 -0.118878 11.7945 2.35822 9.26759L9.94551 1.56544C11.6689 -0.192635 14.6703 -0.231141 16.4309 1.56558C18.2077 3.37884 18.2077 6.28636 16.4293 8.10125L9.48204 15.1586C8.40737 16.2685 6.60952 16.2735 5.52132 15.1628C4.44242 14.0616 4.44242 12.2967 5.52312 11.1937L11.8431 4.7761Z" fill="white"/>
</svg>
