<svg width="48" height="48" viewBox="0 0 48 48" fill="none" xmlns="http://www.w3.org/2000/svg">
<g clip-path="url(#clip0_21_1912)">
<path opacity="0.5" d="M24.38 7.53007C23.38 7.47007 22.41 7.52007 21.46 7.65007C29.06 8.72007 34.47 16.0301 33.37 23.7601C32.22 31.8201 25.06 36.0601 21.52 37.6901C21.65 37.7501 21.79 37.8201 21.91 37.8701C22.93 38.3201 24.08 38.3301 25.1 37.8801C28.47 36.4001 36.17 32.1401 37.37 23.7601C38.51 15.6701 32.54 8.02007 24.38 7.53007Z" fill="#2983FC"/>
<path d="M23.51 42C30.1429 42 35.52 40.8807 35.52 39.5C35.52 38.1193 30.1429 37 23.51 37C16.8771 37 11.5 38.1193 11.5 39.5C11.5 40.8807 16.8771 42 23.51 42Z" fill="url(#paint0_linear_21_1912)"/>
<path d="M23.51 27C26.8237 27 29.51 24.3137 29.51 21C29.51 17.6863 26.8237 15 23.51 15C20.1963 15 17.51 17.6863 17.51 21C17.51 24.3137 20.1963 27 23.51 27Z" stroke="black" stroke-width="3" stroke-miterlimit="10"/>
<path d="M37.36 23.7602C36.28 31.3202 29.91 35.5202 26.2 37.3602C24.53 38.1902 22.58 38.2202 20.9 37.4002C16.84 35.4102 9.5 30.5502 9.5 21.5002C9.5 13.4802 16.25 7.03016 24.38 7.53016C32.54 8.02016 38.52 15.6702 37.36 23.7602Z" stroke="black" stroke-width="3" stroke-miterlimit="10"/>
</g>
<defs>
<linearGradient id="paint0_linear_21_1912" x1="35.52" y1="40.0281" x2="34.67" y2="35.0821" gradientUnits="userSpaceOnUse">
<stop stop-color="#154B7F"/>
<stop offset="1" stop-color="#4A9DFC"/>
</linearGradient>
<clipPath id="clip0_21_1912">
<rect width="31" height="36" fill="white" transform="translate(8 6)"/>
</clipPath>
</defs>
</svg>
