<svg width="23" height="24" viewBox="0 0 23 24" fill="none" xmlns="http://www.w3.org/2000/svg">
<path fill-rule="evenodd" clip-rule="evenodd" d="M11.5 22.8047C5.42487 22.8047 0.5 17.8798 0.5 11.8047C0.5 5.72956 5.42487 0.804688 11.5 0.804688C17.5751 0.804688 22.5 5.72956 22.5 11.8047C22.5 17.8798 17.5751 22.8047 11.5 22.8047ZM11.5 20.8047C16.4706 20.8047 20.5 16.7753 20.5 11.8047C20.5 6.83412 16.4706 2.80469 11.5 2.80469C6.52944 2.80469 2.5 6.83412 2.5 11.8047C2.5 16.7753 6.52944 20.8047 11.5 20.8047ZM16.5 10.8047H12.5V5.80469H10.5V12.8047H16.5V10.8047Z" fill="black"/>
<path d="M12.5 10.8047H12V11.3047H12.5V10.8047ZM16.5 10.8047H17V10.3047H16.5V10.8047ZM12.5 5.80469H13V5.30469H12.5V5.80469ZM10.5 5.80469V5.30469H10V5.80469H10.5ZM10.5 12.8047H10V13.3047H10.5V12.8047ZM16.5 12.8047V13.3047H17V12.8047H16.5ZM0 11.8047C0 18.156 5.14873 23.3047 11.5 23.3047V22.3047C5.70101 22.3047 1 17.6037 1 11.8047H0ZM11.5 0.304688C5.14873 0.304688 0 5.45341 0 11.8047H1C1 6.0057 5.70101 1.30469 11.5 1.30469V0.304688ZM23 11.8047C23 5.45341 17.8513 0.304688 11.5 0.304688V1.30469C17.299 1.30469 22 6.0057 22 11.8047H23ZM11.5 23.3047C17.8513 23.3047 23 18.156 23 11.8047H22C22 17.6037 17.299 22.3047 11.5 22.3047V23.3047ZM20 11.8047C20 16.4991 16.1944 20.3047 11.5 20.3047V21.3047C16.7467 21.3047 21 17.0514 21 11.8047H20ZM11.5 3.30469C16.1944 3.30469 20 7.11027 20 11.8047H21C21 6.55798 16.7467 2.30469 11.5 2.30469V3.30469ZM3 11.8047C3 7.11027 6.80558 3.30469 11.5 3.30469V2.30469C6.25329 2.30469 2 6.55798 2 11.8047H3ZM11.5 20.3047C6.80558 20.3047 3 16.4991 3 11.8047H2C2 17.0514 6.25329 21.3047 11.5 21.3047V20.3047ZM12.5 11.3047H16.5V10.3047H12.5V11.3047ZM12 5.80469V10.8047H13V5.80469H12ZM10.5 6.30469H12.5V5.30469H10.5V6.30469ZM11 12.8047V5.80469H10V12.8047H11ZM16.5 12.3047H10.5V13.3047H16.5V12.3047ZM16 10.8047V12.8047H17V10.8047H16Z" fill="white"/>
</svg>
