<svg width="19" height="24" viewBox="0 0 19 24" fill="none" xmlns="http://www.w3.org/2000/svg">
<path fill-rule="evenodd" clip-rule="evenodd" d="M9.5 23.1323L10.1577 22.5579C15.6887 17.7284 18.5 13.5114 18.5 9.80469C18.5 4.55535 14.4029 0.804688 9.5 0.804688C4.59705 0.804688 0.5 4.55535 0.5 9.80469C0.5 13.5114 3.31131 17.7284 8.84227 22.5579L9.5 23.1323ZM9.5 20.4681C4.80661 16.2382 2.5 12.6539 2.5 9.80469C2.5 5.70129 5.66411 2.80469 9.5 2.80469C13.3359 2.80469 16.5 5.70129 16.5 9.80469C16.5 12.6539 14.1934 16.2382 9.5 20.4681ZM9.5 4.80469C12.2614 4.80469 14.5 7.04326 14.5 9.80469C14.5 12.5661 12.2614 14.8047 9.5 14.8047C6.73858 14.8047 4.5 12.5661 4.5 9.80469C4.5 7.04326 6.73858 4.80469 9.5 4.80469ZM6.5 9.80469C6.5 8.14783 7.84315 6.80469 9.5 6.80469C11.1569 6.80469 12.5 8.14783 12.5 9.80469C12.5 11.4615 11.1569 12.8047 9.5 12.8047C7.84315 12.8047 6.5 11.4615 6.5 9.80469Z" fill="black"/>
<path d="M10.1577 22.5579L9.82886 22.1813L10.1577 22.5579ZM9.5 23.1323L9.17114 23.5089L9.5 23.796L9.82886 23.5089L9.5 23.1323ZM8.84227 22.5579L9.17114 22.1813L8.84227 22.5579ZM9.5 20.4681L9.16526 20.8395L9.5 21.1412L9.83474 20.8395L9.5 20.4681ZM9.82886 22.1813L9.17114 22.7556L9.82886 23.5089L10.4866 22.9346L9.82886 22.1813ZM18 9.80469C18 13.2734 15.3508 17.3597 9.82886 22.1813L10.4866 22.9346C16.0266 18.0971 19 13.7495 19 9.80469H18ZM9.5 1.30469C14.1395 1.30469 18 4.84404 18 9.80469H19C19 4.26666 14.6664 0.304688 9.5 0.304688V1.30469ZM1 9.80469C1 4.84404 4.86048 1.30469 9.5 1.30469V0.304688C4.33363 0.304688 0 4.26666 0 9.80469H1ZM9.17114 22.1813C3.64924 17.3597 1 13.2734 1 9.80469H0C0 13.7495 2.97337 18.0971 8.51341 22.9346L9.17114 22.1813ZM9.82886 22.7556L9.17114 22.1813L8.51341 22.9346L9.17114 23.5089L9.82886 22.7556ZM2 9.80469C2 11.3622 2.62862 13.0661 3.82137 14.8921C5.0163 16.7214 6.79956 18.7075 9.16526 20.8395L9.83474 20.0967C7.50705 17.9989 5.79031 16.0778 4.65859 14.3452C3.52468 12.6093 3 11.0964 3 9.80469H2ZM9.5 2.30469C5.40063 2.30469 2 5.41266 2 9.80469H3C3 5.98992 5.9276 3.30469 9.5 3.30469V2.30469ZM17 9.80469C17 5.41266 13.5994 2.30469 9.5 2.30469V3.30469C13.0724 3.30469 16 5.98992 16 9.80469H17ZM9.83474 20.8395C12.2004 18.7075 13.9837 16.7214 15.1786 14.8921C16.3714 13.0661 17 11.3622 17 9.80469H16C16 11.0964 15.4753 12.6093 14.3414 14.3452C13.2097 16.0778 11.493 17.9989 9.16526 20.0967L9.83474 20.8395ZM15 9.80469C15 6.76712 12.5376 4.30469 9.5 4.30469V5.30469C11.9853 5.30469 14 7.31941 14 9.80469H15ZM9.5 15.3047C12.5376 15.3047 15 12.8423 15 9.80469H14C14 12.29 11.9853 14.3047 9.5 14.3047V15.3047ZM4 9.80469C4 12.8423 6.46243 15.3047 9.5 15.3047V14.3047C7.01472 14.3047 5 12.29 5 9.80469H4ZM9.5 4.30469C6.46243 4.30469 4 6.76712 4 9.80469H5C5 7.31941 7.01472 5.30469 9.5 5.30469V4.30469ZM9.5 6.30469C7.567 6.30469 6 7.87169 6 9.80469H7C7 8.42398 8.11929 7.30469 9.5 7.30469V6.30469ZM13 9.80469C13 7.87169 11.433 6.30469 9.5 6.30469V7.30469C10.8807 7.30469 12 8.42398 12 9.80469H13ZM9.5 13.3047C11.433 13.3047 13 11.7377 13 9.80469H12C12 11.1854 10.8807 12.3047 9.5 12.3047V13.3047ZM6 9.80469C6 11.7377 7.567 13.3047 9.5 13.3047V12.3047C8.11929 12.3047 7 11.1854 7 9.80469H6Z" fill="white"/>
</svg>
