<svg width="23" height="20" viewBox="0 0 23 20" fill="none" xmlns="http://www.w3.org/2000/svg">
<path fill-rule="evenodd" clip-rule="evenodd" d="M2.5 0.804688H20.5C21.6046 0.804688 22.5 1.70012 22.5 2.80469V16.8047C22.5 17.9093 21.6046 18.8047 20.5 18.8047H2.5C1.39543 18.8047 0.5 17.9093 0.5 16.8047V2.80469C0.5 1.70012 1.39543 0.804688 2.5 0.804688ZM2.5 7.42279V16.8047H20.5V7.42322L11.5 11.9232L2.5 7.42279ZM2.5 5.18668L11.5 9.68714L20.5 5.18715V2.80469H2.5V5.18668Z" fill="black"/>
<path d="M2.5 16.8047H2V17.3047H2.5V16.8047ZM2.5 7.42279L2.72362 6.97559L2 6.61374V7.42279H2.5ZM20.5 16.8047V17.3047H21V16.8047H20.5ZM20.5 7.42322H21V6.6142L20.2764 6.97601L20.5 7.42322ZM11.5 11.9232L11.2764 12.3704L11.5 12.4823L11.7236 12.3704L11.5 11.9232ZM2.5 5.18668H2V5.49568L2.27638 5.63389L2.5 5.18668ZM11.5 9.68714L11.2764 10.1343L11.5 10.2462L11.7236 10.1344L11.5 9.68714ZM20.5 5.18715L20.7236 5.63437L21 5.49617V5.18715H20.5ZM20.5 2.80469H21V2.30469H20.5V2.80469ZM2.5 2.80469V2.30469H2V2.80469H2.5ZM20.5 0.304688H2.5V1.30469H20.5V0.304688ZM23 2.80469C23 1.42398 21.8807 0.304688 20.5 0.304688V1.30469C21.3284 1.30469 22 1.97626 22 2.80469H23ZM23 16.8047V2.80469H22V16.8047H23ZM20.5 19.3047C21.8807 19.3047 23 18.1854 23 16.8047H22C22 17.6331 21.3284 18.3047 20.5 18.3047V19.3047ZM2.5 19.3047H20.5V18.3047H2.5V19.3047ZM0 16.8047C0 18.1854 1.11929 19.3047 2.5 19.3047V18.3047C1.67157 18.3047 1 17.6331 1 16.8047H0ZM0 2.80469V16.8047H1V2.80469H0ZM2.5 0.304688C1.11929 0.304688 0 1.42398 0 2.80469H1C1 1.97626 1.67157 1.30469 2.5 1.30469V0.304688ZM3 16.8047V7.42279H2V16.8047H3ZM20.5 16.3047H2.5V17.3047H20.5V16.3047ZM20 7.42322V16.8047H21V7.42322H20ZM20.2764 6.97601L11.2764 11.476L11.7236 12.3704L20.7236 7.87044L20.2764 6.97601ZM11.7236 11.476L2.72362 6.97559L2.27638 7.87L11.2764 12.3704L11.7236 11.476ZM2.27638 5.63389L11.2764 10.1343L11.7236 9.23994L2.72362 4.73948L2.27638 5.63389ZM11.7236 10.1344L20.7236 5.63437L20.2764 4.73994L11.2764 9.23993L11.7236 10.1344ZM20 2.80469V5.18715H21V2.80469H20ZM2.5 3.30469H20.5V2.30469H2.5V3.30469ZM3 5.18668V2.80469H2V5.18668H3Z" fill="white"/>
</svg>
