<svg width="25" height="25" viewBox="0 0 25 25" fill="none" xmlns="http://www.w3.org/2000/svg">
<path fill-rule="evenodd" clip-rule="evenodd" d="M12.5 23.8047C6.42487 23.8047 1.5 18.8798 1.5 12.8047C1.5 6.72956 6.42487 1.80469 12.5 1.80469C18.5751 1.80469 23.5 6.72956 23.5 12.8047C23.5 18.8798 18.5751 23.8047 12.5 23.8047ZM12.5 21.8047C17.4706 21.8047 21.5 17.7753 21.5 12.8047C21.5 7.83412 17.4706 3.80469 12.5 3.80469C7.52944 3.80469 3.5 7.83412 3.5 12.8047C3.5 17.7753 7.52944 21.8047 12.5 21.8047ZM17.5 11.8047H13.5V6.80469H11.5V13.8047H17.5V11.8047Z" fill="black"/>
<path d="M13.5 11.8047H13V12.3047H13.5V11.8047ZM17.5 11.8047H18V11.3047H17.5V11.8047ZM13.5 6.80469H14V6.30469H13.5V6.80469ZM11.5 6.80469V6.30469H11V6.80469H11.5ZM11.5 13.8047H11V14.3047H11.5V13.8047ZM17.5 13.8047V14.3047H18V13.8047H17.5ZM1 12.8047C1 19.156 6.14873 24.3047 12.5 24.3047V23.3047C6.70101 23.3047 2 18.6037 2 12.8047H1ZM12.5 1.30469C6.14873 1.30469 1 6.45341 1 12.8047H2C2 7.0057 6.70101 2.30469 12.5 2.30469V1.30469ZM24 12.8047C24 6.45341 18.8513 1.30469 12.5 1.30469V2.30469C18.299 2.30469 23 7.0057 23 12.8047H24ZM12.5 24.3047C18.8513 24.3047 24 19.156 24 12.8047H23C23 18.6037 18.299 23.3047 12.5 23.3047V24.3047ZM21 12.8047C21 17.4991 17.1944 21.3047 12.5 21.3047V22.3047C17.7467 22.3047 22 18.0514 22 12.8047H21ZM12.5 4.30469C17.1944 4.30469 21 8.11027 21 12.8047H22C22 7.55798 17.7467 3.30469 12.5 3.30469V4.30469ZM4 12.8047C4 8.11027 7.80558 4.30469 12.5 4.30469V3.30469C7.25329 3.30469 3 7.55798 3 12.8047H4ZM12.5 21.3047C7.80558 21.3047 4 17.4991 4 12.8047H3C3 18.0514 7.25329 22.3047 12.5 22.3047V21.3047ZM13.5 12.3047H17.5V11.3047H13.5V12.3047ZM13 6.80469V11.8047H14V6.80469H13ZM11.5 7.30469H13.5V6.30469H11.5V7.30469ZM12 13.8047V6.80469H11V13.8047H12ZM17.5 13.3047H11.5V14.3047H17.5V13.3047ZM17 11.8047V13.8047H18V11.8047H17Z" fill="white"/>
</svg>
