<svg width="25" height="25" viewBox="0 0 25 25" fill="none" xmlns="http://www.w3.org/2000/svg">
<path fill-rule="evenodd" clip-rule="evenodd" d="M3.5 3.80469H21.5C22.6046 3.80469 23.5 4.70012 23.5 5.80469V19.8047C23.5 20.9093 22.6046 21.8047 21.5 21.8047H3.5C2.39543 21.8047 1.5 20.9093 1.5 19.8047V5.80469C1.5 4.70012 2.39543 3.80469 3.5 3.80469ZM3.5 10.4228V19.8047H21.5V10.4232L12.5 14.9232L3.5 10.4228ZM3.5 8.18668L12.5 12.6871L21.5 8.18715V5.80469H3.5V8.18668Z" fill="black"/>
<path d="M3.5 19.8047H3V20.3047H3.5V19.8047ZM3.5 10.4228L3.72362 9.97559L3 9.61374V10.4228H3.5ZM21.5 19.8047V20.3047H22V19.8047H21.5ZM21.5 10.4232H22V9.6142L21.2764 9.97601L21.5 10.4232ZM12.5 14.9232L12.2764 15.3704L12.5 15.4823L12.7236 15.3704L12.5 14.9232ZM3.5 8.18668H3V8.49568L3.27638 8.63389L3.5 8.18668ZM12.5 12.6871L12.2764 13.1343L12.5 13.2462L12.7236 13.1344L12.5 12.6871ZM21.5 8.18715L21.7236 8.63437L22 8.49617V8.18715H21.5ZM21.5 5.80469H22V5.30469H21.5V5.80469ZM3.5 5.80469V5.30469H3V5.80469H3.5ZM21.5 3.30469H3.5V4.30469H21.5V3.30469ZM24 5.80469C24 4.42398 22.8807 3.30469 21.5 3.30469V4.30469C22.3284 4.30469 23 4.97626 23 5.80469H24ZM24 19.8047V5.80469H23V19.8047H24ZM21.5 22.3047C22.8807 22.3047 24 21.1854 24 19.8047H23C23 20.6331 22.3284 21.3047 21.5 21.3047V22.3047ZM3.5 22.3047H21.5V21.3047H3.5V22.3047ZM1 19.8047C1 21.1854 2.11929 22.3047 3.5 22.3047V21.3047C2.67157 21.3047 2 20.6331 2 19.8047H1ZM1 5.80469V19.8047H2V5.80469H1ZM3.5 3.30469C2.11929 3.30469 1 4.42398 1 5.80469H2C2 4.97626 2.67157 4.30469 3.5 4.30469V3.30469ZM4 19.8047V10.4228H3V19.8047H4ZM21.5 19.3047H3.5V20.3047H21.5V19.3047ZM21 10.4232V19.8047H22V10.4232H21ZM21.2764 9.97601L12.2764 14.476L12.7236 15.3704L21.7236 10.8704L21.2764 9.97601ZM12.7236 14.476L3.72362 9.97559L3.27638 10.87L12.2764 15.3704L12.7236 14.476ZM3.27638 8.63389L12.2764 13.1343L12.7236 12.2399L3.72362 7.73948L3.27638 8.63389ZM12.7236 13.1344L21.7236 8.63437L21.2764 7.73994L12.2764 12.2399L12.7236 13.1344ZM21 5.80469V8.18715H22V5.80469H21ZM3.5 6.30469H21.5V5.30469H3.5V6.30469ZM4 8.18668V5.80469H3V8.18668H4Z" fill="white"/>
</svg>
