<svg width="48" height="49" viewBox="0 0 48 49" fill="none" xmlns="http://www.w3.org/2000/svg">
<g id="Telegram" clip-path="url(#clip0_21_89)">
<g id="Telegram_2">
<rect id="Rectangle" y="0.232422" width="48" height="48" rx="24" fill="#419FD9"/>
<path id="Exclude" fill-rule="evenodd" clip-rule="evenodd" d="M29.3355 36.1165C31.013 36.8504 31.642 35.3127 31.642 35.3127L36.0804 13.0158C36.0455 11.513 34.0185 12.4217 34.0185 12.4217L9.17039 22.1722C9.17039 22.1722 7.98215 22.5916 8.087 23.3255C8.19184 24.0594 9.13544 24.4089 9.13544 24.4089L15.3912 26.5058C15.3912 26.5058 17.2784 32.6916 17.6628 33.8798C18.0123 35.0331 18.3268 35.068 18.3268 35.068C18.6763 35.2078 18.9908 34.9632 18.9908 34.9632L23.0448 31.2936L29.3355 36.1165ZM30.4189 16.9649C30.4189 16.9649 31.2926 16.4407 31.2576 16.9649C31.2576 16.9649 31.3974 17.0348 30.9431 17.524C30.5237 17.9434 20.6334 26.8202 19.3054 28.0085C19.2005 28.0784 19.1306 28.1832 19.1306 28.323L18.7462 31.6081C18.6763 31.9576 18.222 31.9926 18.1171 31.678L16.4746 26.296C16.4047 26.0863 16.4746 25.8417 16.6842 25.7019L30.4189 16.9649Z" fill="white"/>
</g>
</g>
<defs>
<clipPath id="clip0_21_89">
<rect width="48" height="48" fill="white" transform="translate(0 0.232422)"/>
</clipPath>
</defs>
</svg>
