<svg width="48" height="49" viewBox="0 0 48 49" fill="none" xmlns="http://www.w3.org/2000/svg">
<g id="Viber" clip-path="url(#clip0_21_80)">
<g id="Viber_2">
<rect id="Rectangle" y="0.232422" width="48" height="48" rx="24" fill="#675DA9"/>
<g id="Group">
<path id="Vector" d="M35.7535 12.417C34.9596 11.6871 31.7456 9.35024 24.5814 9.31823C24.5814 9.31823 16.1367 8.80604 12.02 12.5834C9.72798 14.8755 8.92129 18.2239 8.83806 22.3854C8.75483 26.5405 8.64599 34.3322 16.1559 36.445H16.1623L16.1559 39.6653C16.1559 39.6653 16.1111 40.9714 16.969 41.2339C18.0062 41.554 18.6208 40.5617 19.6132 39.4925C20.1574 38.9035 20.9065 38.0455 21.4763 37.3861C26.611 37.8151 30.5612 36.8291 31.0094 36.6818C32.0465 36.3425 37.9175 35.5934 38.8714 27.8018C39.8574 19.7861 38.3913 14.709 35.7535 12.417ZM36.6242 27.2384C35.8175 33.7432 31.0606 34.1529 30.1835 34.4346C29.8121 34.5563 26.3421 35.4206 21.9757 35.1325C21.9757 35.1325 18.7233 39.0571 17.7117 40.0751C17.5516 40.2351 17.366 40.2992 17.2443 40.2672C17.0715 40.2223 17.0202 40.0175 17.0267 39.7165C17.0267 39.2812 17.0523 34.3578 17.0523 34.3578C17.0459 34.3578 17.0459 34.3578 17.0523 34.3578C10.6947 32.5971 11.0661 25.9643 11.1365 22.4943C11.2069 19.0242 11.86 16.1751 13.7999 14.2608C17.2763 11.1109 24.4534 11.5783 24.4534 11.5783C30.51 11.6039 33.4102 13.4285 34.0825 14.0368C36.3169 15.9575 37.4565 20.5351 36.6242 27.2384Z" fill="white"/>
<path id="Vector_2" d="M27.533 22.6159C27.3217 22.6159 27.1424 22.4494 27.1296 22.2318C27.0592 20.8553 26.4126 20.183 25.0937 20.1126C24.8696 20.0998 24.6967 19.9077 24.7095 19.6836C24.7223 19.4596 24.9144 19.2867 25.1385 19.2995C26.8799 19.3955 27.8531 20.3943 27.9427 22.187C27.9555 22.411 27.7827 22.6031 27.5586 22.6095C27.5458 22.6159 27.5394 22.6159 27.533 22.6159Z" fill="white"/>
<path id="Vector_3" d="M29.6073 23.3077H29.6009C29.3768 23.3013 29.1976 23.1156 29.204 22.8915C29.236 21.5086 28.839 20.3882 27.9939 19.4663C27.1552 18.5444 25.9964 18.045 24.4662 17.9361C24.2421 17.9169 24.0757 17.7249 24.0949 17.5008C24.1141 17.2767 24.3062 17.1102 24.5303 17.1294C26.2589 17.2575 27.6226 17.8593 28.5957 18.9221C29.5753 19.9913 30.0491 21.3294 30.0171 22.9108C30.0107 23.1348 29.825 23.3077 29.6073 23.3077Z" fill="white"/>
<path id="Vector_4" d="M31.7329 24.1399C31.5088 24.1399 31.3295 23.9607 31.3295 23.7366C31.3103 21.2589 30.5996 19.3702 29.1527 17.9553C27.725 16.5596 25.9131 15.8489 23.7812 15.8297C23.5571 15.8297 23.3778 15.644 23.3778 15.4199C23.3778 15.1959 23.5635 15.0166 23.7812 15.0166C26.1308 15.0358 28.1283 15.8233 29.7097 17.3727C31.2975 18.922 32.1106 21.0604 32.1362 23.7238C32.1426 23.9543 31.9633 24.1399 31.7329 24.1399C31.7393 24.1399 31.7393 24.1399 31.7329 24.1399Z" fill="white"/>
<path id="Vector_5" d="M25.1897 27.6291C25.1897 27.6291 25.7595 27.6803 26.0668 27.3026L26.6622 26.5535C26.9503 26.1822 27.6482 25.9453 28.3268 26.323C28.7046 26.5343 29.3896 26.9569 29.8122 27.2706C30.2667 27.6035 31.1887 28.3718 31.1951 28.3782C31.6368 28.7495 31.7393 29.2937 31.4384 29.8763C31.4384 29.8763 31.4384 29.8827 31.4384 29.8891C31.131 30.4333 30.7149 30.9455 30.1963 31.4193C30.1899 31.4193 30.1899 31.4257 30.1835 31.4257C29.7545 31.7842 29.332 31.9891 28.9222 32.0339C28.871 32.0467 28.8134 32.0467 28.7366 32.0467C28.5573 32.0467 28.378 32.0211 28.1988 31.9635L28.186 31.9443C27.5457 31.765 26.4829 31.3169 24.7159 30.3373C23.5635 29.7035 22.6095 29.0568 21.7964 28.4102C21.3675 28.0709 20.9321 27.6931 20.484 27.245C20.4711 27.2322 20.4519 27.213 20.4391 27.2002C20.4263 27.1874 20.4071 27.1681 20.3943 27.1553C20.3815 27.1425 20.3623 27.1233 20.3495 27.1105C20.3367 27.0977 20.3175 27.0785 20.3047 27.0657C19.8629 26.6175 19.4788 26.1822 19.1395 25.7532C18.4928 24.9465 17.8462 23.9862 17.2124 22.8338C16.2328 21.0603 15.7846 19.9975 15.6054 19.3637L15.5862 19.3509C15.5285 19.1716 15.5029 18.9924 15.5029 18.8131C15.5029 18.7363 15.5029 18.6786 15.5157 18.6274C15.567 18.2113 15.7718 17.7951 16.124 17.3662C16.124 17.3598 16.1304 17.3598 16.1304 17.3534C16.6041 16.8284 17.1163 16.4186 17.6605 16.1113C17.6605 16.1113 17.6669 16.1113 17.6733 16.1113C18.2495 15.8104 18.7937 15.9128 19.1715 16.3546C19.1715 16.3546 19.9462 17.2829 20.2791 17.7375C20.5928 18.1665 21.0153 18.8451 21.2266 19.2228C21.6044 19.9015 21.3675 20.5993 20.9961 20.8874L20.2471 21.4829C19.8693 21.7902 19.9205 22.36 19.9205 22.36C19.9205 22.36 21.0282 26.5727 25.1897 27.6291Z" fill="white"/>
</g>
</g>
</g>
<defs>
<clipPath id="clip0_21_80">
<rect width="48" height="48" fill="white" transform="translate(0 0.232422)"/>
</clipPath>
</defs>
</svg>
