<svg width="48" height="49" viewBox="0 0 48 49" fill="none" xmlns="http://www.w3.org/2000/svg">
<g id="WhatsApp" clip-path="url(#clip0_21_76)">
<g id="WhatsApp_2">
<rect id="Rectangle" y="0.232422" width="48" height="48" rx="24" fill="#0DC143"/>
<path id="Vector" d="M34.7507 13.4439C32.1777 10.7953 28.621 9.35742 24.9885 9.35742C17.2696 9.35742 11.0642 15.6385 11.1399 23.2817C11.1399 25.7034 11.821 28.0493 12.9561 30.1682L10.9885 37.3574L18.3291 35.4655C20.3723 36.6007 22.6426 37.1304 24.9128 37.1304C32.5561 37.1304 38.7615 30.8493 38.7615 23.2061C38.7615 19.498 37.3237 16.0169 34.7507 13.4439ZM24.9885 34.7844C22.9453 34.7844 20.902 34.2547 19.1615 33.1953L18.7074 32.9682L14.3183 34.1034L15.4534 29.7899L15.1507 29.3358C11.821 23.9628 13.4101 16.8493 18.8588 13.5196C24.3074 10.1899 31.3453 11.779 34.675 17.2277C38.0047 22.6763 36.4156 29.7142 30.9669 33.0439C29.2264 34.179 27.1074 34.7844 24.9885 34.7844ZM31.648 26.3844L30.8156 26.0061C30.8156 26.0061 29.6047 25.4763 28.848 25.098C28.7723 25.098 28.6966 25.0223 28.621 25.0223C28.3939 25.0223 28.2426 25.098 28.0912 25.1736C28.0912 25.1736 28.0156 25.2493 26.9561 26.4601C26.8804 26.6115 26.7291 26.6872 26.5777 26.6872H26.502C26.4264 26.6872 26.275 26.6115 26.1993 26.5358L25.821 26.3844C24.9885 26.0061 24.2318 25.552 23.6264 24.9466C23.475 24.7953 23.248 24.6439 23.0966 24.4926C22.5669 23.9628 22.0372 23.3574 21.6588 22.6763L21.5831 22.525C21.5074 22.4493 21.5074 22.3736 21.4318 22.2223C21.4318 22.0709 21.4318 21.9196 21.5074 21.8439C21.5074 21.8439 21.8101 21.4655 22.0372 21.2385C22.1885 21.0872 22.2642 20.8601 22.4156 20.7088C22.5669 20.4817 22.6426 20.179 22.5669 19.952C22.4912 19.5736 21.5831 17.5304 21.3561 17.0763C21.2047 16.8493 21.0534 16.7736 20.8264 16.698H20.5993C20.448 16.698 20.221 16.698 19.9939 16.698C19.8426 16.698 19.6912 16.7736 19.5399 16.7736L19.4642 16.8493C19.3128 16.925 19.1615 17.0763 19.0101 17.152C18.8588 17.3034 18.7831 17.4547 18.6318 17.6061C18.102 18.2872 17.7993 19.1196 17.7993 19.952C17.7993 20.5574 17.9507 21.1628 18.1777 21.6926L18.2534 21.9196C18.9345 23.3574 19.8426 24.6439 21.0534 25.779L21.3561 26.0817C21.5831 26.3088 21.8101 26.4601 21.9615 26.6872C23.5507 28.0493 25.3669 29.0331 27.4101 29.5628C27.6372 29.6385 27.9399 29.6385 28.1669 29.7142C28.3939 29.7142 28.6966 29.7142 28.9237 29.7142C29.302 29.7142 29.7561 29.5628 30.0588 29.4115C30.2858 29.2601 30.4372 29.2601 30.5885 29.1088L30.7399 28.9574C30.8912 28.8061 31.0426 28.7304 31.1939 28.579C31.3453 28.4277 31.4966 28.2763 31.5723 28.125C31.7237 27.8223 31.7993 27.4439 31.875 27.0655C31.875 26.9142 31.875 26.6872 31.875 26.5358C31.875 26.5358 31.7993 26.4601 31.648 26.3844Z" fill="white"/>
</g>
</g>
<defs>
<clipPath id="clip0_21_76">
<rect width="48" height="48" fill="white" transform="translate(0 0.232422)"/>
</clipPath>
</defs>
</svg>
