<svg width="25" height="25" viewBox="0 0 25 25" fill="none" xmlns="http://www.w3.org/2000/svg">
<path fill-rule="evenodd" clip-rule="evenodd" d="M12.5 24.1323L13.1577 23.5579C18.6887 18.7284 21.5 14.5114 21.5 10.8047C21.5 5.55535 17.4029 1.80469 12.5 1.80469C7.59705 1.80469 3.5 5.55535 3.5 10.8047C3.5 14.5114 6.31131 18.7284 11.8423 23.5579L12.5 24.1323ZM12.5 21.4681C7.80661 17.2382 5.5 13.6539 5.5 10.8047C5.5 6.70129 8.66411 3.80469 12.5 3.80469C16.3359 3.80469 19.5 6.70129 19.5 10.8047C19.5 13.6539 17.1934 17.2382 12.5 21.4681ZM12.5 5.80469C15.2614 5.80469 17.5 8.04326 17.5 10.8047C17.5 13.5661 15.2614 15.8047 12.5 15.8047C9.73858 15.8047 7.5 13.5661 7.5 10.8047C7.5 8.04326 9.73858 5.80469 12.5 5.80469ZM9.5 10.8047C9.5 9.14783 10.8431 7.80469 12.5 7.80469C14.1569 7.80469 15.5 9.14783 15.5 10.8047C15.5 12.4615 14.1569 13.8047 12.5 13.8047C10.8431 13.8047 9.5 12.4615 9.5 10.8047Z" fill="black"/>
<path d="M13.1577 23.5579L12.8289 23.1813L13.1577 23.5579ZM12.5 24.1323L12.1711 24.5089L12.5 24.796L12.8289 24.5089L12.5 24.1323ZM11.8423 23.5579L12.1711 23.1813L11.8423 23.5579ZM12.5 21.4681L12.1653 21.8395L12.5 22.1412L12.8347 21.8395L12.5 21.4681ZM12.8289 23.1813L12.1711 23.7556L12.8289 24.5089L13.4866 23.9346L12.8289 23.1813ZM21 10.8047C21 14.2734 18.3508 18.3597 12.8289 23.1813L13.4866 23.9346C19.0266 19.0971 22 14.7495 22 10.8047H21ZM12.5 2.30469C17.1395 2.30469 21 5.84404 21 10.8047H22C22 5.26666 17.6664 1.30469 12.5 1.30469V2.30469ZM4 10.8047C4 5.84404 7.86048 2.30469 12.5 2.30469V1.30469C7.33363 1.30469 3 5.26666 3 10.8047H4ZM12.1711 23.1813C6.64924 18.3597 4 14.2734 4 10.8047H3C3 14.7495 5.97337 19.0971 11.5134 23.9346L12.1711 23.1813ZM12.8289 23.7556L12.1711 23.1813L11.5134 23.9346L12.1711 24.5089L12.8289 23.7556ZM5 10.8047C5 12.3622 5.62862 14.0661 6.82137 15.8921C8.0163 17.7214 9.79956 19.7075 12.1653 21.8395L12.8347 21.0967C10.507 18.9989 8.79031 17.0778 7.65859 15.3452C6.52468 13.6093 6 12.0964 6 10.8047H5ZM12.5 3.30469C8.40063 3.30469 5 6.41266 5 10.8047H6C6 6.98992 8.9276 4.30469 12.5 4.30469V3.30469ZM20 10.8047C20 6.41266 16.5994 3.30469 12.5 3.30469V4.30469C16.0724 4.30469 19 6.98992 19 10.8047H20ZM12.8347 21.8395C15.2004 19.7075 16.9837 17.7214 18.1786 15.8921C19.3714 14.0661 20 12.3622 20 10.8047H19C19 12.0964 18.4753 13.6093 17.3414 15.3452C16.2097 17.0778 14.493 18.9989 12.1653 21.0967L12.8347 21.8395ZM18 10.8047C18 7.76712 15.5376 5.30469 12.5 5.30469V6.30469C14.9853 6.30469 17 8.31941 17 10.8047H18ZM12.5 16.3047C15.5376 16.3047 18 13.8423 18 10.8047H17C17 13.29 14.9853 15.3047 12.5 15.3047V16.3047ZM7 10.8047C7 13.8423 9.46243 16.3047 12.5 16.3047V15.3047C10.0147 15.3047 8 13.29 8 10.8047H7ZM12.5 5.30469C9.46243 5.30469 7 7.76712 7 10.8047H8C8 8.31941 10.0147 6.30469 12.5 6.30469V5.30469ZM12.5 7.30469C10.567 7.30469 9 8.87169 9 10.8047H10C10 9.42398 11.1193 8.30469 12.5 8.30469V7.30469ZM16 10.8047C16 8.87169 14.433 7.30469 12.5 7.30469V8.30469C13.8807 8.30469 15 9.42398 15 10.8047H16ZM12.5 14.3047C14.433 14.3047 16 12.7377 16 10.8047H15C15 12.1854 13.8807 13.3047 12.5 13.3047V14.3047ZM9 10.8047C9 12.7377 10.567 14.3047 12.5 14.3047V13.3047C11.1193 13.3047 10 12.1854 10 10.8047H9Z" fill="white"/>
</svg>
